<svg width="25" height="25" viewBox="0 0 25 25" fill="none" xmlns="http://www.w3.org/2000/svg">
<path id="call" d="M17.9675 25C17.1605 25 16.3603 24.8573 15.5779 24.5731C12.1308 23.3209 8.93125 21.2814 6.3249 18.6751C3.71854 16.0688 1.67907 12.8692 0.426916 9.42217C0.0245384 8.31441 -0.0942074 7.1709 0.0740971 6.02329C0.231757 4.94833 0.648149 3.90477 1.2783 3.00539C1.91124 2.10206 2.75505 1.35073 3.7185 0.832632C4.7459 0.280164 5.8673 0 7.05163 0C7.41997 0 7.73832 0.257363 7.81552 0.617504L9.04174 6.33988C9.09726 6.599 9.01762 6.86862 8.83027 7.05601L6.73499 9.15124C8.71158 13.0811 11.9189 16.2883 15.8487 18.2649L17.944 16.1696C18.1314 15.9823 18.401 15.9028 18.6601 15.9582L24.3825 17.1844C24.7427 17.2616 25 17.5799 25 17.9483C25 19.1326 24.7198 20.2541 24.1673 21.2815C23.6492 22.2449 22.8979 23.0887 21.9945 23.7216C21.0952 24.3518 20.0516 24.7682 18.9766 24.9258C18.6398 24.9753 18.303 25 17.9675 25ZM6.42743 1.59661C4.86523 1.76907 3.47866 2.58788 2.55789 3.90204C1.52248 5.37976 1.28104 7.19731 1.89547 8.88875C4.3028 15.5157 9.4843 20.6972 16.1113 23.1045C17.8027 23.719 19.6203 23.4776 21.098 22.4421C22.4122 21.5213 23.231 20.1348 23.4035 18.5726L18.7483 17.5751L16.5601 19.7633C16.3273 19.9961 15.9735 20.058 15.6755 19.9179C11.0278 17.7344 7.26558 13.9723 5.08207 9.32452C4.94208 9.02653 5.0039 8.67274 5.23675 8.43994L7.42495 6.25175L6.42743 1.59661Z" fill="#2CA2FF"/>
</svg>
