<svg width="25" height="21" viewBox="0 0 25 21" fill="none" xmlns="http://www.w3.org/2000/svg">
<path d="M24.1682 3.27173C23.6692 2.71376 22.98 2.38405 22.1958 2.38405H18.2509V2.33333C18.2509 1.69927 18.0133 1.09057 17.6093 0.684775C17.2053 0.253615 16.6587 -7.62939e-06 16.0646 -7.62939e-06H8.93536C8.31749 -7.62939e-06 7.77091 0.253615 7.36692 0.684775C6.96292 1.11593 6.72528 1.69927 6.72528 2.33333V2.38405H2.80418C2.01996 2.38405 1.33079 2.71376 0.831745 3.27173C0.332696 3.80434 -3.8147e-06 4.56521 -3.8147e-06 5.3768V18.0072C-3.8147e-06 18.8442 0.308932 19.5797 0.831745 20.1123C1.33079 20.6449 2.04372 21 2.80418 21H22.1958C22.98 21 23.6692 20.6703 24.1682 20.1123C24.6673 19.5797 25 18.8188 25 18.0072V5.3768C25 4.53985 24.6911 3.80434 24.1682 3.27173ZM23.7643 18.0072H23.7405C23.7405 18.4638 23.5741 18.8696 23.289 19.1739C23.0038 19.4783 22.6236 19.6558 22.1958 19.6558H2.80418C2.37642 19.6558 1.99619 19.4783 1.71102 19.1739C1.42585 18.8696 1.2595 18.4638 1.2595 18.0072V5.3768C1.2595 4.92028 1.42585 4.51448 1.71102 4.21014C1.99619 3.90579 2.37642 3.72825 2.80418 3.72825H7.39068C7.74714 3.72825 8.03232 3.42391 8.03232 3.04347V2.30796C8.03232 2.02898 8.12737 1.77535 8.29372 1.59782C8.46007 1.42028 8.69772 1.31883 8.95912 1.31883H16.0646C16.326 1.31883 16.5637 1.42028 16.73 1.59782C16.8964 1.77535 16.9914 2.02898 16.9914 2.30796V3.04347C16.9914 3.42391 17.2766 3.72825 17.6331 3.72825H22.2196C22.6473 3.72825 23.0276 3.90579 23.3127 4.21014C23.5979 4.51448 23.7643 4.92028 23.7643 5.3768V18.0072Z" fill="#2CA2FF"/>
<path d="M12.5 5.45289C10.884 5.45289 9.41064 6.16304 8.36502 7.27898C7.29562 8.42028 6.65399 9.96738 6.65399 11.692C6.65399 13.4167 7.31939 14.9891 8.36502 16.1051C9.43441 17.2464 10.884 17.9312 12.5 17.9312C14.116 17.9312 15.5893 17.221 16.635 16.1051C17.7044 14.9638 18.346 13.4167 18.346 11.692C18.346 9.96738 17.6806 8.39492 16.635 7.27898C15.5893 6.16304 14.116 5.45289 12.5 5.45289ZM15.7319 15.1667C14.9002 16.029 13.7595 16.5869 12.5 16.5869C11.2405 16.5869 10.0998 16.029 9.26806 15.1667C8.43631 14.279 7.93726 13.0616 7.93726 11.7174C7.93726 10.3732 8.46007 9.15579 9.26806 8.26811C10.0998 7.38043 11.2405 6.84782 12.5 6.84782C13.7595 6.84782 14.9002 7.40579 15.7319 8.26811C16.5637 9.15579 17.0627 10.3732 17.0627 11.7174C17.0865 13.0616 16.5637 14.279 15.7319 15.1667Z" fill="#2CA2FF"/>
<path d="M20.9601 7.91304C21.6032 7.91304 22.1245 7.35664 22.1245 6.67028C22.1245 5.98393 21.6032 5.42753 20.9601 5.42753C20.317 5.42753 19.7956 5.98393 19.7956 6.67028C19.7956 7.35664 20.317 7.91304 20.9601 7.91304Z" fill="#2CA2FF"/>
</svg>
