<svg width="45" height="45" viewBox="0 0 45 45" fill="none" xmlns="http://www.w3.org/2000/svg">
<g id="forward">
<circle id="Ellipse 1" cx="22.5" cy="22.5" r="22.5" fill="#9B9D99" fill-opacity="0.2"/>
<path id="forward_2" d="M34.6947 21.8505L25.3252 13.279C25.0275 13.0076 24.5809 12.9247 24.1905 13.0724C23.8011 13.219 23.5481 13.5676 23.5481 13.9524V17.7657C17.5579 17.9905 12.3318 21.6905 10.6578 26.9924C9.93322 29.2914 9.98944 31.159 10.0102 31.8629L10.0144 32.0476C10.0144 32.4762 10.3277 32.8524 10.7785 32.9657C10.8712 32.9886 10.9638 33 11.0555 33C11.4157 33 11.7592 32.8276 11.9497 32.5352C16.0733 26.1943 21.5368 26.0143 23.5481 26.1934V31.0953C23.5481 31.48 23.8011 31.8286 24.1905 31.9753C24.5809 32.1239 25.0275 32.041 25.3252 31.7686L34.6947 23.1972C35.1018 22.8247 35.1018 22.2228 34.6947 21.8505Z" fill="#EEEEEE"/>
</g>
</svg>
