<svg width="25" height="25" viewBox="0 0 25 25" fill="none" xmlns="http://www.w3.org/2000/svg">
<g id="mic">
<path id="micHead" d="M12.5 0C10.0852 0 8.12046 1.9647 8.12046 4.37954V12.9869C8.12046 15.4015 10.0852 17.3662 12.5 17.3662C14.9148 17.3662 16.8795 15.4151 16.8795 13.017V4.37954C16.8795 1.9647 14.9148 0 12.5 0ZM15.0544 13.0167C15.0544 14.4085 13.9084 15.5411 12.5 15.5411C11.0916 15.5411 9.94527 14.3954 9.94527 12.9866V4.37954C9.94527 2.9708 11.0913 1.8248 12.5 1.8248C13.9087 1.8248 15.0547 2.9708 15.0544 4.37954V13.0167Z" fill="#2CA2FF"/>
<g id="micBody">
<path id="Vector" d="M13.4124 19.9817H11.5876V24.0876H13.4124V19.9817Z" fill="#2CA2FF"/>
<path id="Vector_2" d="M14.9027 23.1752H10.0973C9.59336 23.1752 9.18491 23.5836 9.18491 24.0876C9.18491 24.5916 9.59336 25 10.0973 25H14.9027C15.4066 25 15.8151 24.5916 15.8151 24.0876C15.8151 23.5836 15.4066 23.1752 14.9027 23.1752Z" fill="#2CA2FF"/>
<path id="Vector_3" d="M19.4039 11.4659C18.9 11.4659 18.4915 11.8744 18.4915 12.3783V13.1083C18.4915 16.4118 15.8036 19.0998 12.5 19.0998C9.19619 19.0998 6.5085 16.4118 6.5085 13.1083V12.3783C6.5085 11.8744 6.10005 11.4659 5.5961 11.4659C5.09214 11.4659 4.68369 11.8744 4.68369 12.3783V13.1083C4.68369 17.4182 8.19009 20.9246 12.5 20.9246C16.8099 20.9246 20.3163 17.4182 20.3163 13.1083V12.3783C20.3163 11.8744 19.9079 11.4659 19.4039 11.4659Z" fill="#2CA2FF"/>
</g>
</g>
</svg>
