<svg width="376" height="668" viewBox="0 0 376 668" fill="none" xmlns="http://www.w3.org/2000/svg">
<rect y="0.445007" width="375" height="667" transform="rotate(-0.0679881 0 0.445007)" fill="#171717"/>
<path d="M33.1797 641.32H24.3203V650.18C24.3203 650.633 23.9531 651 23.5 651C23.0469 651 22.6797 650.633 22.6797 650.18V641.32H13.8203C13.3673 641.32 13 640.953 13 640.5C13 640.047 13.3673 639.68 13.8203 639.68H22.6797V630.82C22.6797 630.367 23.0469 630 23.5 630C23.9531 630 24.3203 630.367 24.3203 630.82V639.68H33.1797C33.6327 639.68 34 640.047 34 640.5C34 640.953 33.6327 641.32 33.1797 641.32Z" fill="#2CA2FF"/>
<path d="M352 630C349.837 630 348.078 631.65 348.078 633.679V640.909C348.078 642.937 349.837 644.588 352 644.588C354.163 644.588 355.922 642.949 355.922 640.934V633.679C355.922 631.65 354.163 630 352 630ZM354.288 640.934C354.288 642.103 353.261 643.054 352 643.054C350.739 643.054 349.712 642.092 349.712 640.909V633.679C349.712 632.495 350.738 631.533 352 631.533C353.262 631.533 354.288 632.495 354.288 633.679V640.934Z" fill="#2CA2FF"/>
<path d="M352.817 646.785H351.183V650.234H352.817V646.785Z" fill="#2CA2FF"/>
<path d="M354.152 649.467H349.848C349.397 649.467 349.031 649.81 349.031 650.234C349.031 650.657 349.397 651 349.848 651H354.152C354.603 651 354.969 650.657 354.969 650.234C354.969 649.81 354.603 649.467 354.152 649.467Z" fill="#2CA2FF"/>
<path d="M358.183 639.631C357.732 639.631 357.366 639.974 357.366 640.398V641.011C357.366 643.786 354.959 646.044 352 646.044C349.041 646.044 346.634 643.786 346.634 641.011V640.398C346.634 639.974 346.268 639.631 345.817 639.631C345.366 639.631 345 639.974 345 640.398V641.011C345 644.631 348.14 647.577 352 647.577C355.86 647.577 359 644.631 359 641.011V640.398C359 639.975 358.634 639.631 358.183 639.631Z" fill="#2CA2FF"/>
<path d="M328.168 633.272C327.669 632.714 326.98 632.384 326.196 632.384H322.251V632.333C322.251 631.699 322.013 631.091 321.609 630.685C321.205 630.254 320.659 630 320.065 630H312.935C312.317 630 311.771 630.254 311.367 630.685C310.963 631.116 310.725 631.699 310.725 632.333V632.384H306.804C306.02 632.384 305.331 632.714 304.832 633.272C304.333 633.804 304 634.565 304 635.377V648.007C304 648.844 304.309 649.58 304.832 650.112C305.331 650.645 306.044 651 306.804 651H326.196C326.98 651 327.669 650.67 328.168 650.112C328.667 649.58 329 648.819 329 648.007V635.377C329 634.54 328.691 633.804 328.168 633.272ZM327.764 648.007H327.74C327.74 648.464 327.574 648.87 327.289 649.174C327.004 649.478 326.624 649.656 326.196 649.656H306.804C306.376 649.656 305.996 649.478 305.711 649.174C305.426 648.87 305.26 648.464 305.26 648.007V635.377C305.26 634.92 305.426 634.514 305.711 634.21C305.996 633.906 306.376 633.728 306.804 633.728H311.391C311.747 633.728 312.032 633.424 312.032 633.043V632.308C312.032 632.029 312.127 631.775 312.294 631.598C312.46 631.42 312.698 631.319 312.959 631.319H320.065C320.326 631.319 320.564 631.42 320.73 631.598C320.896 631.775 320.991 632.029 320.991 632.308V633.043C320.991 633.424 321.277 633.728 321.633 633.728H326.22C326.647 633.728 327.028 633.906 327.313 634.21C327.598 634.514 327.764 634.92 327.764 635.377V648.007Z" fill="#2CA2FF"/>
<path d="M316.5 635.453C314.884 635.453 313.411 636.163 312.365 637.279C311.296 638.42 310.654 639.967 310.654 641.692C310.654 643.417 311.319 644.989 312.365 646.105C313.434 647.246 314.884 647.931 316.5 647.931C318.116 647.931 319.589 647.221 320.635 646.105C321.704 644.964 322.346 643.417 322.346 641.692C322.346 639.967 321.681 638.395 320.635 637.279C319.589 636.163 318.116 635.453 316.5 635.453ZM319.732 645.167C318.9 646.029 317.76 646.587 316.5 646.587C315.24 646.587 314.1 646.029 313.268 645.167C312.436 644.279 311.937 643.062 311.937 641.717C311.937 640.373 312.46 639.156 313.268 638.268C314.1 637.38 315.24 636.848 316.5 636.848C317.76 636.848 318.9 637.406 319.732 638.268C320.564 639.156 321.063 640.373 321.063 641.717C321.086 643.062 320.564 644.279 319.732 645.167Z" fill="#2CA2FF"/>
<path d="M324.96 637.913C325.603 637.913 326.125 637.357 326.125 636.67C326.125 635.984 325.603 635.428 324.96 635.428C324.317 635.428 323.796 635.984 323.796 636.67C323.796 637.357 324.317 637.913 324.96 637.913Z" fill="#2CA2FF"/>
<rect x="46" y="630" width="246" height="22" rx="11" fill="#2C2C2E"/>
<path d="M57.088 640.968C57.112 640.5 57.112 640.056 57.112 639.648V638.94H58.792V640.968H57.088ZM58.792 636.144V638.124H57.112V636.144H58.792ZM59.632 635.328H56.296V639.648C56.296 641.412 56.236 643.836 55.456 645.528C55.672 645.588 56.02 645.792 56.188 645.936C56.716 644.772 56.944 643.248 57.052 641.808H58.792V644.724C58.792 644.892 58.732 644.952 58.576 644.964C58.432 644.964 57.928 644.964 57.376 644.94C57.496 645.18 57.616 645.576 57.64 645.816C58.444 645.816 58.912 645.792 59.224 645.636C59.524 645.492 59.632 645.228 59.632 644.736V635.328ZM62.884 636.396V639.84H61.42V636.396H62.884ZM65.104 639.84H63.652V636.396H65.104V639.84ZM62.26 644.868C61.552 644.868 61.42 644.724 61.42 644.076V640.692H65.104V641.328H65.968V635.544H60.556V644.064C60.556 645.384 60.964 645.72 62.2 645.72H64.84C66.1 645.72 66.364 645.036 66.508 643.08C66.256 643.02 65.908 642.864 65.68 642.72C65.596 644.436 65.476 644.868 64.792 644.868H62.26Z" fill="white"/>
</svg>
