<svg width="15" height="25" viewBox="0 0 15 25" fill="none" xmlns="http://www.w3.org/2000/svg">
<path id="previous" d="M5.04055 12.5053L14.5923 3.15244C14.8553 2.89553 15 2.55203 15 2.18577C15 1.81931 14.8553 1.47602 14.5923 1.2187L13.7553 0.399594C13.4927 0.14187 13.1417 0 12.7676 0C12.3936 0 12.043 0.14187 11.7802 0.399594L0.407285 11.535C0.143446 11.7931 -0.00103236 12.138 5.56144e-06 12.5047C-0.00103236 12.873 0.143238 13.2175 0.407285 13.4758L11.7696 24.6004C12.0324 24.8581 12.383 25 12.7573 25C13.1313 25 13.4819 24.8581 13.7449 24.6004L14.5817 23.7813C15.1262 23.2482 15.1262 22.3803 14.5817 21.8474L5.04055 12.5053Z" fill="#2CA2FF"/>
</svg>
