<svg width="35" height="22" viewBox="0 0 35 22" fill="none" xmlns="http://www.w3.org/2000/svg">
<path id="video" d="M34.6368 1.9622C34.4114 1.829 34.1328 1.8238 33.9028 1.94891L25.8723 6.32291V3.69845C25.87 1.65679 24.2114 0.00231153 22.1647 0H3.70763C1.6609 0.00231153 0.00231727 1.65679 0 3.69845V18.3015C0.00231727 20.3432 1.6609 21.9977 3.70763 22H22.1647C24.2114 21.9977 25.87 20.3432 25.8723 18.3015V15.7248L33.9031 20.0988C34.1328 20.2239 34.4117 20.219 34.6368 20.0858C34.8621 19.9523 35 19.7104 35 19.4495V2.59816C35 2.33696 34.8618 2.0954 34.6368 1.9622ZM24.3887 18.3018C24.3875 19.527 23.3922 20.5195 22.1641 20.5209H3.70763C2.47948 20.5195 1.4845 19.527 1.48305 18.3018V3.69845C1.4845 2.47363 2.47948 1.48082 3.70763 1.47938H22.1647C23.3925 1.48082 24.3878 2.47363 24.3892 3.69845L24.3887 18.3018ZM33.5169 18.203L25.8723 14.0394V8.0083L33.5169 3.84494V18.203Z" fill="#2CA2FF"/>
</svg>
